<svg width="40" height="40" viewBox="0 0 40 40" fill="none" xmlns="http://www.w3.org/2000/svg">
<path d="M36.996 19.5999L36.9961 19.5999C36.9928 19.3289 36.9865 19.0289 36.9799 18.7072C36.9788 18.6571 36.9778 18.6065 36.9767 18.5553C36.9456 17.4729 36.8914 16.3971 36.8064 15.3856L36.8064 15.3852C36.6903 13.9877 36.5215 12.8454 36.2981 12.0038C36.0734 11.1674 35.6332 10.4045 35.0214 9.79146C34.4094 9.17828 33.6473 8.73643 32.8111 8.51007C31.7697 8.23056 29.6643 8.04694 26.6064 7.93325L26.6061 7.93324C25.162 7.87874 23.6156 7.84367 22.0679 7.82418L22.067 7.82417C21.5843 7.81722 21.1325 7.81337 20.7185 7.80985C20.6692 7.80943 20.6203 7.80901 20.5721 7.80859H19.4279C19.3797 7.80901 19.3308 7.80943 19.2815 7.80985C18.8675 7.81337 18.4157 7.81722 17.933 7.82417L17.9321 7.82418C16.3845 7.84367 14.8381 7.87874 13.394 7.93323L36.996 19.5999ZM36.996 19.5999L36.9964 19.611M36.996 19.5999L36.9964 19.611M36.9964 19.611C37 19.7147 37 19.8045 37 19.8906V20.1094C37 20.1442 36.9992 20.1821 36.9983 20.2294L36.9981 20.2377C36.9972 20.2863 36.9961 20.3423 36.9961 20.4031M36.9964 19.611L36.9961 20.4031M32.9414 31.9726C34.8125 31.4726 36.2812 30 36.7812 28.125C37.0195 27.2422 37.1875 26.0664 37.3047 24.6562C37.3906 23.6328 37.4453 22.5469 37.4766 21.457C37.4876 21.1008 37.4917 20.7653 37.4954 20.4634L37.4961 20.4062M32.9414 31.9726L32.8129 31.4894C32.8128 31.4895 32.8127 31.4895 32.8126 31.4895M32.9414 31.9726L32.8123 31.4896C32.8124 31.4896 32.8125 31.4895 32.8126 31.4895M32.9414 31.9726C31.8398 32.2656 29.6719 32.4492 26.625 32.5664M32.8126 31.4895C34.5101 31.0358 35.8441 29.6988 36.2981 27.9962L36.2985 27.9947C36.5251 27.1551 36.6901 26.0143 36.8064 24.6148L36.8064 24.6144C36.8914 23.6022 36.9457 22.5258 36.9768 21.4427L36.9768 21.4416C36.9877 21.09 36.9917 20.7586 36.9954 20.456L36.9961 20.4062H37.4961M32.8126 31.4895C31.7744 31.7656 29.6643 31.9491 26.6058 32.0668M37.4961 20.4062L36.9961 20.4001L36.9961 20.4031M37.4961 20.4062C37.4961 20.3457 37.4972 20.2896 37.4982 20.2374C37.4992 20.1919 37.5 20.1494 37.5 20.1094V19.8906C37.5 19.8047 37.5 19.707 37.4961 19.5937C37.4927 19.3204 37.4864 19.0179 37.4797 18.6963L36.9961 20.4031M26.6058 32.0668C26.6059 32.0668 26.606 32.0668 26.6061 32.0668L26.625 32.5664M26.6058 32.0668C25.1618 32.1213 23.6154 32.1563 22.0679 32.1758L22.067 32.1758C21.5843 32.1828 21.1325 32.1866 20.7185 32.1901L20.5742 32.1914V32.6914M26.6058 32.0668L26.625 32.5664M26.625 32.5664C25.1758 32.6211 23.625 32.6562 22.0742 32.6758C21.5897 32.6827 21.1362 32.6866 20.7222 32.6901C20.6723 32.6906 20.623 32.691 20.5742 32.6914M20.5742 32.6914H19.4258M20.5742 32.6914L20.5699 32.1914L20.5721 32.1914H19.4279L19.4301 32.1914L19.4258 32.6914M19.4258 32.6914C19.377 32.691 19.3277 32.6906 19.2778 32.6901C18.8638 32.6866 18.4103 32.6827 17.9258 32.6758C16.375 32.6562 14.8242 32.6211 13.375 32.5664C10.3281 32.4531 8.16016 32.2695 7.05859 31.9726C5.1875 31.4726 3.71875 29.9961 3.21875 28.125M19.4258 32.6914V32.1914L19.2815 32.1901C18.8675 32.1866 18.4157 32.1828 17.933 32.1758L17.9321 32.1758C16.3844 32.1563 14.838 32.1212 13.3939 32.0668L13.3936 32.0667C10.3347 31.953 8.22562 31.7693 7.1887 31.4899L7.18768 31.4896C5.4906 31.0361 4.1561 29.6955 3.70189 27.9963M3.21875 28.125L13.3939 7.93324C10.3362 8.05085 8.22641 8.23435 7.188 8.51031C6.35186 8.73614 5.58972 9.17768 4.97791 9.79074C4.36589 10.404 3.9258 11.1674 3.70174 12.0043L3.70148 12.0053C3.47487 12.8448 3.3099 13.9856 3.19359 15.3852L3.19356 15.3856C3.10857 16.3977 3.05429 17.4742 3.02323 18.5573L3.0232 18.5584C3.01233 18.9098 3.00827 19.2411 3.00456 19.5435L3.00391 19.5969C3.00387 19.6577 3.00282 19.7137 3.00186 19.7623L3.00169 19.7708C3.00075 19.818 3 19.8558 3 19.8906V20.1094C3 20.1955 3.00003 20.2853 3.00361 20.389L3.00399 20.4001L3.00387 20.4001C3.00721 20.6711 3.01345 20.9712 3.02014 21.293C3.02119 21.3431 3.02224 21.3936 3.02329 21.4447M3.21875 28.125C2.98438 27.2422 2.8125 26.0664 2.69531 24.6562M3.21875 28.125L3.7018 27.9959C3.70183 27.996 3.70186 27.9961 3.70189 27.9963M3.21875 28.125L3.70201 27.9967C3.70197 27.9966 3.70193 27.9964 3.70189 27.9963M3.21875 28.125L2.69531 24.6562M3.70189 27.9963C3.47852 27.1547 3.30974 26.0124 3.1936 24.6148L3.19356 24.6144C3.10862 23.6029 3.05435 22.5271 3.02329 21.4447M3.02329 21.4447C3.02327 21.444 3.02325 21.4434 3.02323 21.4427L2.52344 21.457M3.02329 21.4447C3.0233 21.4454 3.02332 21.446 3.02333 21.4467L2.52344 21.457M2.52344 21.457C2.55469 22.5469 2.60938 23.6328 2.69531 24.6562M2.52344 21.457C2.52237 21.4055 2.52131 21.3543 2.52026 21.3037C2.51357 20.9821 2.50728 20.6796 2.50391 20.4062C2.5 20.293 2.5 20.1953 2.5 20.1094V19.8906C2.5 19.8506 2.50085 19.8081 2.50175 19.7626L2.69531 24.6562M35.1639 21.3857L35.1639 21.3881C35.1363 22.4354 35.0812 23.484 34.9983 24.4597C34.9982 24.4599 34.9982 24.4601 34.9982 24.4603L34.5 24.418L35.1639 21.3857ZM35.1639 21.3857C35.1652 21.3293 35.1664 21.2735 35.1676 21.2182C35.174 20.9213 35.1801 20.6413 35.1835 20.3834M35.1639 21.3857L34.6836 20.3711M19.4374 30.375V30.375L17.9609 30.3633L17.9585 30.3632C16.4279 30.3437 14.8962 30.3084 13.4652 30.2535L13.4649 30.2535C12.0561 30.1987 10.8279 30.128 9.84655 30.0431C8.87672 29.9591 8.11508 29.8589 7.65966 29.7369L7.65893 29.7367C6.58818 29.448 5.74295 28.6024 5.45459 27.528L5.45425 27.5268C5.25926 26.7924 5.10798 25.7265 5.00177 24.46C4.91875 23.4834 4.8676 22.4349 4.83618 21.3906C4.82505 21.0453 4.82087 20.7211 4.8172 20.4354L4.81645 20.3776L4.81636 20.3711H4.81641C4.81641 20.3241 4.81554 20.2789 4.81456 20.2327L4.81433 20.2214C4.81345 20.1803 4.8125 20.1355 4.8125 20.0937V19.9062V19.9041C4.8125 19.8241 4.8125 19.7286 4.81652 19.6166C4.81987 19.3585 4.82597 19.0784 4.83243 18.7813C4.83363 18.7262 4.83484 18.6705 4.83605 18.6142L4.83611 18.6118C4.86367 17.5645 4.91882 16.5157 5.00177 15.54C5.10798 14.2734 5.25926 13.2075 5.45425 12.4732L5.45459 12.4719C5.74257 11.399 6.58709 10.5477 7.66071 10.2628C8.11741 10.1411 8.87804 10.0399 9.84774 9.9555C10.8288 9.87008 12.0563 9.79937 13.4654 9.74645L19.4374 30.375ZM19.4374 30.375H19.4414M19.4374 30.375H19.4414M19.4414 30.375H20.5586C21.0065 30.375 21.5047 30.3711 22.0415 30.3632M19.4414 30.375L22.0415 30.3632M20.5626 9.625V9.62502L22.0391 9.63673L22.0415 9.63675C23.5721 9.65633 25.1038 9.69157 26.5348 9.74646L26.5351 9.74647C27.9439 9.80133 29.1721 9.87203 30.1535 9.95694C31.1233 10.0408 31.8849 10.1411 32.3403 10.2631L32.3411 10.2633C33.4118 10.552 34.257 11.3976 34.5454 12.4719L34.5458 12.4732C34.7407 13.2076 34.892 14.2736 34.9983 15.5402M20.5626 9.625L34.6829 19.5718L34.6836 19.6289C34.6836 19.6856 34.6847 19.7389 34.6858 19.7882C34.6867 19.8306 34.6875 19.8701 34.6875 19.9062V20.0937C34.6875 20.1758 34.6875 20.2656 34.6836 20.3711M20.5626 9.625H20.5586M20.5626 9.625H20.5586M34.9983 15.5402L34.5 15.582L34.9982 15.5397C34.9982 15.5399 34.9982 15.5401 34.9983 15.5402ZM34.9983 15.5402C35.0813 16.5168 35.1324 17.5653 35.1638 18.6096M35.1638 18.6096C35.1638 18.6097 35.1638 18.6098 35.1638 18.61L34.6641 18.625L35.1638 18.6089C35.1638 18.6091 35.1638 18.6093 35.1638 18.6096ZM35.1638 18.6096C35.1749 18.9547 35.1791 19.2788 35.1828 19.5644L35.1836 19.6224L35.1836 19.6289C35.1836 19.6759 35.1845 19.7211 35.1854 19.7673L35.1857 19.7783C35.1865 19.8195 35.1875 19.8644 35.1875 19.9062V20.0937V20.0959C35.1875 20.1758 35.1875 20.2713 35.1835 20.3834M35.1835 20.3834C35.1835 20.3814 35.1835 20.3795 35.1836 20.3775L34.6836 20.3711M35.1835 20.3834C35.1834 20.3855 35.1833 20.3875 35.1833 20.3896L34.6836 20.3711M20.5586 9.625H19.4414C18.9934 9.625 18.495 9.62893 17.958 9.63676L20.5586 9.625ZM26.5346 30.2535C26.5347 30.2535 26.5348 30.2535 26.5348 30.2535C27.9439 30.2006 29.1712 30.1299 30.1523 30.0445C31.1218 29.9601 31.8824 29.8589 32.3391 29.7372L26.5344 30.2535C26.5345 30.2535 26.5345 30.2535 26.5346 30.2535ZM26.5346 30.2535C25.1075 30.3084 23.572 30.3437 22.0415 30.3632M26.5346 30.2535L22.0415 30.3632M17.0234 15.6286L24.5862 19.9642L17.0234 24.3649V15.6286Z" fill="white" stroke="black"/>
</svg>
